<svg width="15" height="23" viewBox="0 0 15 23" fill="none" xmlns="http://www.w3.org/2000/svg">
<path d="M14.6133 8.83365C14.5177 8.69229 14.3889 8.57656 14.2382 8.49664C14.0874 8.41673 13.9193 8.37506 13.7487 8.37532H10.6237V6.29199H12.9154C13.1916 6.29199 13.4566 6.18224 13.6519 5.98689C13.8473 5.79154 13.957 5.52659 13.957 5.25032V1.08365C13.957 0.807392 13.8473 0.542442 13.6519 0.347092C13.4566 0.151732 13.1916 0.0419922 12.9154 0.0419922H9.582C7.9797 0.0419922 6.443 0.678522 5.3099 1.81155C4.1769 2.94458 3.54036 4.48131 3.54036 6.08365V8.37532H1.2487C0.972432 8.37532 0.707481 8.48507 0.512131 8.68042C0.316781 8.87577 0.207031 9.14074 0.207031 9.41694V13.5836C0.207031 13.8599 0.316781 14.1248 0.512131 14.3202C0.707481 14.5155 0.972432 14.6253 1.2487 14.6253H3.54036V21.9169C3.54036 22.1932 3.65011 22.4582 3.84546 22.6535C4.04081 22.8489 4.30576 22.9586 4.58203 22.9586H9.582C9.8583 22.9586 10.1233 22.8489 10.3186 22.6535C10.514 22.4582 10.6237 22.1932 10.6237 21.9169V14.6253H12.082C12.2907 14.6255 12.4945 14.563 12.6673 14.446C12.84 14.329 12.9736 14.1628 13.0508 13.969L14.7174 9.80244C14.7804 9.64464 14.8038 9.47394 14.7856 9.30514C14.7675 9.13624 14.7083 8.97441 14.6133 8.83365ZM11.3737 12.5419H9.582C9.3058 12.5419 9.0408 12.6517 8.8455 12.847C8.6501 13.0424 8.5404 13.3073 8.5404 13.5836V20.8753H5.6237V13.5836C5.6237 13.3073 5.514 13.0424 5.3186 12.847C5.1233 12.6517 4.8583 12.5419 4.58203 12.5419H2.29036V10.4586H4.58203C4.8583 10.4586 5.1233 10.3489 5.3186 10.1535C5.514 9.95824 5.6237 9.69324 5.6237 9.41694V6.08365C5.6264 5.03468 6.0444 4.02946 6.7861 3.28773C7.5278 2.54599 8.5331 2.12807 9.582 2.12532H11.8737V4.20865H11.0404C10.6877 4.15727 10.3282 4.17884 9.9842 4.27201C9.6402 4.36518 9.3189 4.52798 9.0404 4.75032C8.8713 4.9273 8.7399 5.13667 8.6539 5.36583C8.568 5.59498 8.5294 5.83917 8.5404 6.08365V9.41694C8.5404 9.69324 8.6501 9.95824 8.8455 10.1535C9.0408 10.3489 9.3058 10.4586 9.582 10.4586H12.207L11.3737 12.5419Z" fill="#1A1930"/>
</svg>
