<svg width="12" height="10" viewBox="0 0 12 10" fill="none" xmlns="http://www.w3.org/2000/svg">
<path d="M11.5755 6.64612L7.69957 5L11.5755 3.35388C11.7705 3.27096 11.9127 3.13444 11.9711 2.97435C12.0294 2.81426 11.9988 2.6437 11.8862 2.50016C11.7735 2.35662 11.5881 2.25187 11.3705 2.20892C11.1528 2.16597 10.9209 2.18834 10.7258 2.27112L6.84965 3.91735V0.625C6.84965 0.45924 6.76013 0.30027 6.60079 0.18306C6.44145 0.0658499 6.22534 0 6 0C5.77465 0 5.55854 0.0658499 5.3992 0.18306C5.23986 0.30027 5.15034 0.45924 5.15034 0.625V3.91735L1.27424 2.2711C1.07905 2.18832 0.847169 2.16595 0.629563 2.2089C0.411957 2.25185 0.226448 2.35661 0.113818 2.50014C0.00118823 2.64368 -0.0293587 2.81424 0.0289206 2.97433C0.0871999 3.13442 0.22952 3.27094 0.424586 3.35386L4.30044 5L0.424586 6.64612C0.22952 6.72904 0.0871999 6.86556 0.0289206 7.02565C-0.0293587 7.18574 0.00118823 7.3563 0.113818 7.49984C0.226448 7.6434 0.411957 7.7481 0.629563 7.7911C0.847169 7.834 1.07905 7.8117 1.27424 7.7289L5.15034 6.08265V9.375C5.15034 9.5408 5.23986 9.6997 5.3992 9.8169C5.55854 9.9342 5.77465 10 6 10C6.22534 10 6.44145 9.9342 6.60079 9.8169C6.76013 9.6997 6.84965 9.5408 6.84965 9.375V6.08265L10.7258 7.7289C10.9209 7.8117 11.1528 7.8341 11.3705 7.7911C11.5881 7.7482 11.7735 7.6434 11.8862 7.49986C11.9988 7.35632 12.0294 7.18576 11.9711 7.02567C11.9127 6.86558 11.7705 6.72906 11.5755 6.64614V6.64612Z" fill="#2D2B5C"/>
</svg>
