<svg width="21" height="65" viewBox="0 0 21 65" fill="none" xmlns="http://www.w3.org/2000/svg">
<path d="M20 26.0869C20.1 24.3995 19.7 22.3745 19.2 22.3745L13.5 19.6745L10.9 2.12455C10.8 1.44955 10.7 1.11205 10.5 0.774548C10 -0.237952 9.4 0.437047 9.1 2.12455L6.6 19.6745L0.9 22.3745C0.6 22.3745 0.4 22.712 0.3 23.387C-0.1 24.737 -0.1 26.7619 0.3 28.1119L4.4 41.6119L3.4 60.8494C3.4 61.5244 3.4 62.1994 3.5 62.8744C3.8 64.5619 4.4 65.2369 4.9 64.2244L10 55.1119L15.1 64.2244C15.2 64.5619 15.4 64.5619 15.6 64.5619H15.8C16.3 64.2244 16.7 62.5369 16.6 60.5119L15.6 41.2744L19.7 27.7744C19.9 27.4369 20 26.7619 20 26.0869Z" fill="#EA5959"/>
</svg>
