<svg width="21" height="65" viewBox="0 0 21 65" fill="none" xmlns="http://www.w3.org/2000/svg">
<path d="M20.001 24.6358C19.938 24.0185 19.823 23.4763 19.671 23.0749C19.518 22.6735 19.334 22.4303 19.141 22.3746L13.451 19.5733L10.901 2.12457C10.82 1.55396 10.692 1.07272 10.533 0.735998C10.373 0.399308 10.189 0.220703 10.001 0.220703C9.81397 0.220703 9.62997 0.399308 9.46997 0.735998C9.31097 1.07272 9.18297 1.55396 9.10096 2.12457L6.55097 19.5396L0.860965 22.3746C0.675965 22.4634 0.501966 22.7254 0.358966 23.1311C0.215966 23.5368 0.108967 24.0698 0.0509672 24.6696C-0.00203283 25.2557 -0.00603331 25.8795 0.0379667 26.4742C0.0819667 27.0689 0.172967 27.6116 0.300967 28.0446L4.43097 41.5446L3.43097 60.7146C3.39597 61.3474 3.41397 62.0015 3.48497 62.5995C3.55597 63.1972 3.67597 63.7146 3.83097 64.0896C3.98297 64.4544 4.16097 64.6697 4.34597 64.7116C4.53197 64.7534 4.71696 64.6198 4.88096 64.3258L10.001 55.3146L15.101 64.3596C15.242 64.6269 15.4 64.7663 15.561 64.7646C15.773 64.7673 15.98 64.5425 16.151 64.1233C16.307 63.7484 16.427 63.231 16.498 62.6333C16.568 62.0352 16.587 61.3811 16.551 60.7483L15.551 41.5783L19.681 28.0783C19.826 27.6656 19.933 27.1229 19.989 26.5133C20.046 25.9042 20.05 25.253 20.001 24.6358ZM13.851 38.1358C13.734 38.5186 13.646 38.9924 13.596 39.5162C13.545 40.0397 13.534 40.5972 13.561 41.1396L14.281 55.2808L10.521 48.5308C10.377 48.271 10.215 48.1349 10.051 48.1349C9.88796 48.1349 9.72597 48.271 9.58097 48.5308L5.82097 55.2808L6.54097 41.1396C6.56897 40.5972 6.55797 40.0397 6.50697 39.5162C6.45597 38.9924 6.36897 38.5186 6.25097 38.1358L3.25096 28.0108L7.46097 25.9521C7.62296 25.8761 7.77697 25.667 7.90997 25.3434C8.04197 25.0198 8.14897 24.5914 8.22097 24.0958L10.001 11.2371L11.881 24.1296C11.953 24.6252 12.06 25.0535 12.193 25.3771C12.325 25.7008 12.479 25.9099 12.641 25.9858L16.851 28.0446L13.851 38.1358Z" fill="#EA5959"/>
</svg>
