<svg width="23" height="21" viewBox="0 0 23 21" fill="none" xmlns="http://www.w3.org/2000/svg">
<path d="M22.9481 2.11509C22.9483 1.9311 22.8996 1.75036 22.8072 1.59128C22.7147 1.4322 22.5817 1.30047 22.4218 1.2095C22.2619 1.11852 22.0807 1.07156 21.8967 1.07338C21.7127 1.07521 21.5325 1.12577 21.3744 1.2199C20.7647 1.5828 20.1083 1.86072 19.4234 2.04594C18.4452 1.2066 17.1977 0.747299 15.9088 0.751989C14.4948 0.753619 13.1368 1.3047 12.1215 2.28885C11.1063 3.273 10.5132 4.6132 10.4675 6.02645C7.68001 5.58193 5.15361 4.127 3.37009 1.9391C3.26262 1.80872 3.12538 1.70609 2.96994 1.63988C2.8145 1.57366 2.64541 1.54579 2.47694 1.55863C2.30856 1.57249 2.1461 1.62716 2.0036 1.71791C1.8611 1.80866 1.74284 1.93275 1.65906 2.07946C1.2294 2.82927 0.982642 3.66984 0.938802 4.53291C0.894972 5.39598 1.0553 6.25722 1.40678 7.0467L1.40475 7.04873C1.24678 7.14603 1.11641 7.28223 1.02611 7.4443C0.935812 7.60638 0.888612 7.78891 0.889002 7.97444C0.887092 8.12745 0.896272 8.28045 0.916472 8.43225C1.02286 9.74285 1.60374 10.9697 2.55018 11.8827C2.48597 12.005 2.44679 12.1389 2.43491 12.2765C2.42303 12.4141 2.4387 12.5528 2.481 12.6843C2.89362 13.9698 3.77111 15.0552 4.94174 15.7279C3.75241 16.1878 2.46822 16.3481 1.20231 16.1948C0.968012 16.1654 0.730682 16.2165 0.529242 16.3397C0.327802 16.4629 0.174222 16.651 0.093682 16.8729C0.013152 17.0949 0.0104519 17.3377 0.0860219 17.5614C0.161602 17.7851 0.310962 17.9765 0.509612 18.1042C2.68679 19.5064 5.22177 20.252 7.81145 20.2516C10.7482 20.2847 13.6135 19.3462 15.9617 17.5823C18.3099 15.8184 20.0093 13.3279 20.7956 10.4982C21.1634 9.26555 21.3512 7.9862 21.3531 6.69984C21.3531 6.63168 21.3531 6.56149 21.3521 6.49131C21.8959 5.90478 22.3173 5.21558 22.5913 4.46412C22.8654 3.71265 22.9867 2.91404 22.9481 2.11509ZM19.5037 5.46083C19.3317 5.66431 19.2446 5.92624 19.2606 6.19223C19.2708 6.36411 19.2697 6.53703 19.2697 6.69984C19.2676 7.78686 19.1083 8.86785 18.7967 9.90925C18.1545 12.3169 16.7229 14.4395 14.7312 15.9369C12.7394 17.4345 10.3028 18.2201 7.81145 18.1683C6.91653 18.1686 6.0247 18.0634 5.15439 17.855C6.26419 17.4973 7.30188 16.9459 8.21937 16.2264C8.38835 16.0933 8.51203 15.9113 8.57342 15.7051C8.63481 15.499 8.63091 15.2789 8.56226 15.0751C8.49361 14.8712 8.36356 14.6936 8.18997 14.5667C8.01638 14.4397 7.80775 14.3695 7.5927 14.3658C6.7269 14.3523 5.90013 14.0033 5.28659 13.3923C5.44223 13.3628 5.59686 13.3262 5.75046 13.2824C5.97547 13.2184 6.17238 13.0805 6.30948 12.8909C6.44658 12.7013 6.5159 12.4712 6.50627 12.2374C6.49663 12.0037 6.40862 11.7799 6.25638 11.6023C6.10415 11.4247 5.89656 11.3034 5.66704 11.2581C5.16448 11.1589 4.69157 10.945 4.28508 10.6333C3.87859 10.3215 3.54947 9.92035 3.32329 9.46065C3.51155 9.48635 3.70101 9.50235 3.89092 9.50845C4.11653 9.51185 4.33737 9.44345 4.52152 9.31305C4.70567 9.18265 4.84357 8.99715 4.91529 8.78315C4.98402 8.56725 4.98049 8.33495 4.90522 8.12125C4.82996 7.90754 4.68707 7.72423 4.49822 7.59909C4.04004 7.29385 3.66472 6.87974 3.40588 6.39383C3.14704 5.90793 3.01276 5.36542 3.01506 4.81488C3.01506 4.74571 3.0171 4.67654 3.02117 4.60838C5.35582 6.78573 8.384 8.06925 11.5722 8.23285C11.7331 8.23915 11.8934 8.20885 12.0409 8.14425C12.1884 8.07955 12.3193 7.98218 12.4237 7.85952C12.527 7.73567 12.6001 7.58952 12.6374 7.4326C12.6746 7.27567 12.6749 7.11224 12.6382 6.95518C12.5787 6.7066 12.5483 6.45192 12.5477 6.19631C12.5487 5.3052 12.9031 4.45086 13.5332 3.82075C14.1633 3.19064 15.0176 2.83624 15.9087 2.8353C16.3672 2.83407 16.821 2.9279 17.2413 3.11087C17.6617 3.29383 18.0396 3.56196 18.3512 3.89833C18.4713 4.02758 18.6225 4.12395 18.7904 4.17826C18.9583 4.23257 19.1373 4.24303 19.3104 4.20863C19.7383 4.12536 20.1601 4.0132 20.5728 3.87294C20.2913 4.44896 19.9315 4.9833 19.5037 5.46083Z" fill="#1A1930"/>
</svg>
